name ./resultDataOpenSim/trcMotMarkerGrf/sub06/grf-15-06.mot
datacolumns 19
datarows 10
range 0.53600000 0.57200000
endheader

                time	     ground_force_vx	     ground_force_vy	     ground_force_vz	     ground_force_px	     ground_force_py	     ground_force_pz	   l_ground_force_vx	   l_ground_force_vy	   l_ground_force_vz	   l_ground_force_px	   l_ground_force_py	   l_ground_force_pz	     ground_torque_x	     ground_torque_y	     ground_torque_z	   l_ground_torque_x	   l_ground_torque_y	   l_ground_torque_z	
          0.53600000	        160.02251187	        791.31054764	        -25.73610751	         -0.77898334	          0.00000000	          0.07989360	          0.00000000	          0.00000000	          0.00000000	          0.00000000	          0.00000000	          0.00000000	          0.00000000	          1.66451053	          0.00000000	          0.00000000	          0.00000000	          0.00000000	
          0.54000000	        167.43321223	        795.22808873	        -24.95705009	         -0.77832945	          0.00000000	          0.07962246	          0.00000000	          0.00000000	          0.00000000	          0.00000000	          0.00000000	          0.00000000	          0.00000000	          1.65403781	          0.00000000	          0.00000000	          0.00000000	          0.00000000	
          0.54400000	        174.54733179	        797.32125111	        -24.15586872	         -0.77762222	          0.00000000	          0.07936313	          0.00000000	          0.00000000	          0.00000000	          0.00000000	          0.00000000	          0.00000000	          0.00000000	          1.63978809	          0.00000000	          0.00000000	          0.00000000	          0.00000000	
          0.54800000	        181.33866381	        797.70058331	        -23.38961662	         -0.77691578	          0.00000000	          0.07908742	          0.00000000	          0.00000000	          0.00000000	          0.00000000	          0.00000000	          0.00000000	          0.00000000	          1.61647189	          0.00000000	          0.00000000	          0.00000000	          0.00000000	
          0.55200000	        187.78926701	        796.38887027	        -22.69443948	         -0.77623216	          0.00000000	          0.07878364	          0.00000000	          0.00000000	          0.00000000	          0.00000000	          0.00000000	          0.00000000	          0.00000000	          1.57941529	          0.00000000	          0.00000000	          0.00000000	          0.00000000	
          0.55600000	        193.86451395	        793.23016134	        -22.06717831	         -0.77552846	          0.00000000	          0.07846711	          0.00000000	          0.00000000	          0.00000000	          0.00000000	          0.00000000	          0.00000000	          0.00000000	          1.52551993	          0.00000000	          0.00000000	          0.00000000	          0.00000000	
          0.56000000	        199.52677110	        788.01643378	        -21.46909822	         -0.77474724	          0.00000000	          0.07816066	          0.00000000	          0.00000000	          0.00000000	          0.00000000	          0.00000000	          0.00000000	          0.00000000	          1.45386044	          0.00000000	          0.00000000	          0.00000000	          0.00000000	
          0.56400000	        204.76588309	        780.65384472	        -20.84217442	         -0.77388351	          0.00000000	          0.07787062	          0.00000000	          0.00000000	          0.00000000	          0.00000000	          0.00000000	          0.00000000	          0.00000000	          1.36576462	          0.00000000	          0.00000000	          0.00000000	          0.00000000	
          0.56800000	        209.60396451	        771.18887571	        -20.11843579	         -0.77298853	          0.00000000	          0.07758438	          0.00000000	          0.00000000	          0.00000000	          0.00000000	          0.00000000	          0.00000000	          0.00000000	          1.26428512	          0.00000000	          0.00000000	          0.00000000	          0.00000000	
          0.57200000	        214.06567798	        759.69881410	        -19.22243558	         -0.77211970	          0.00000000	          0.07728760	          0.00000000	          0.00000000	          0.00000000	          0.00000000	          0.00000000	          0.00000000	          0.00000000	          1.15318900	          0.00000000	          0.00000000	          0.00000000	          0.00000000	
